<svg xmlns="http://www.w3.org/2000/svg" xmlns:xlink="http://www.w3.org/1999/xlink" version="1.1" baseProfile="full" width="40" height="39" enable-background="new 0 0 76.01 76.01" xml:space="preserve"><rect id="backgroundrect" width="100%" height="100%" x="0" y="0" fill="none" stroke="none" class=""/>
	
<g class="currentLayer"><title>Layer 1</title><path fill="#000000" fill-opacity="1" stroke-width="0.2" stroke-linejoin="round" d="M3.721800938704363,35.412513702477796 L3.721800938704363,4.627386768215272 L8.24900684903395,4.627386768215272 L8.24900684903395,1.9110813283062793 C8.249097380477753,0.9108899371546153 9.059806459746689,0.1001808578856842 10.059907319454547,0.1001808578856842 L13.681617728851935,0.1001808578856842 C14.681718588559793,0.1001808578856842 15.492427667828725,0.9108899371546153 15.492518199272531,1.9109002654186709 L15.492518199272531,4.627386768215272 L28.168730960772905,4.627386768215272 L28.168640429329095,1.9109002654186709 C28.168640429329095,0.910708874267006 28.97944004004183,0.09999979499807488 29.979540899749693,0.09999979499807488 L33.60134184059089,0.09999979499807488 C34.60144270029875,0.09999979499807488 35.41224231101148,0.910708874267006 35.41224231101148,1.9109002654186709 L35.41224231101148,4.627386768215272 L39.939448221341074,4.627386768215272 L39.939448221341074,35.412513702477796 L3.721800938704363,35.412513702477796 zM6.438106378613354,32.69620826256881 L37.22305224998828,32.69620826256881 L37.22305224998828,11.870988649897658 L6.438106378613354,11.870988649897658 L6.438106378613354,32.69620826256881 zM8.24900684903395,26.358011350374817 L13.681617728851935,26.358011350374817 L13.681617728851935,30.8852172607044 L8.24900684903395,30.8852172607044 L8.24900684903395,26.358011350374817 zM15.492518199272531,26.358011350374817 L20.92512907909051,26.358011350374817 L20.92512907909051,30.8852172607044 L15.492518199272531,30.8852172607044 L15.492518199272531,26.358011350374817 zM22.736029549511116,26.358011350374817 L28.168640429329095,26.358011350374817 L28.168640429329095,30.8852172607044 L22.736029549511116,30.8852172607044 L22.736029549511116,26.358011350374817 zM29.979450368305884,26.358011350374817 L35.41215177956769,26.358011350374817 L35.41215177956769,30.8852172607044 L29.979450368305884,30.8852172607044 L29.979450368305884,26.358011350374817 zM8.24900684903395,20.019904969624633 L13.681617728851935,20.019904969624633 L13.681617728851935,24.54711087995422 L8.24900684903395,24.54711087995422 L8.24900684903395,20.019904969624633 zM15.492518199272531,20.019904969624633 L20.92512907909051,20.019904969624633 L20.92512907909051,24.54711087995422 L15.492518199272531,24.54711087995422 L15.492518199272531,20.019904969624633 zM22.736029549511116,20.019904969624633 L28.168640429329095,20.019904969624633 L28.168640429329095,24.54711087995422 L22.736029549511116,24.54711087995422 L22.736029549511116,20.019904969624633 zM29.979450368305884,20.019904969624633 L35.41215177956769,20.019904969624633 L35.41215177956769,24.54711087995422 L29.979450368305884,24.54711087995422 L29.979450368305884,20.019904969624633 zM15.492518199272531,13.682070183205862 L20.92512907909051,13.682070183205862 L20.92512907909051,18.209185562091644 L15.492518199272531,18.209185562091644 L15.492518199272531,13.682070183205862 zM22.736029549511116,13.682070183205862 L28.168640429329095,13.682070183205862 L28.168640429329095,18.209185562091644 L22.736029549511116,18.209185562091644 L22.736029549511116,13.682070183205862 zM29.979450368305884,13.682070183205862 L35.41215177956769,13.682070183205862 L35.41215177956769,18.209185562091644 L29.979450368305884,18.209185562091644 L29.979450368305884,13.682070183205862 zM31.33760308826038,1.911171859750084 C30.58755007634044,1.911171859750084 29.979450368305884,2.519271567784638 29.979450368305884,3.2693245797045787 L29.979450368305884,5.9857205510573745 C29.979450368305884,6.73577356297732 30.58755007634044,7.343873271011871 31.33760308826038,7.343873271011871 L32.243098589192584,7.343873271011871 C32.99315160111252,7.343873271011871 33.60125130914708,6.73577356297732 33.60125130914708,5.9857205510573745 L33.60125130914708,3.2693245797045787 C33.60125130914708,2.519271567784638 32.99315160111252,1.911171859750084 32.243098589192584,1.911171859750084 L31.33760308826038,1.911171859750084 zM11.417969507965237,1.911171859750084 C10.667916496045294,1.911171859750084 10.05981678801074,2.519271567784638 10.05981678801074,3.2693245797045787 L10.05981678801074,5.98563001961357 C10.05981678801074,6.73577356297732 10.667916496045294,7.343782739568068 11.417969507965237,7.343782739568068 L12.323465008897436,7.343782739568068 C13.073518020817383,7.343782739568068 13.681617728851935,6.73577356297732 13.681617728851935,5.98563001961357 L13.681617728851935,3.2693245797045787 C13.681617728851935,2.519271567784638 13.073518020817383,1.911171859750084 12.323465008897436,1.911171859750084 L11.417969507965237,1.911171859750084 zM16.397923168760926,20.92540047055683 L16.397923168760926,23.641705910465824 L20.019724109602123,23.641705910465824 L20.019724109602123,20.92540047055683 L16.397923168760926,20.92540047055683 zM9.154411818522345,20.92540047055683 L9.154411818522345,23.641705910465824 L12.77621275936354,23.641705910465824 L12.77621275936354,20.92540047055683 L9.154411818522345,20.92540047055683 zM23.641525050443313,20.92540047055683 L23.641525050443313,23.641705910465824 L27.2632354598407,23.641705910465824 L27.2632354598407,20.92540047055683 L23.641525050443313,20.92540047055683 zM30.884945869238088,20.92540047055683 L30.884945869238088,23.641705910465824 L34.50674681007928,23.641705910465824 L34.50674681007928,20.92540047055683 L30.884945869238088,20.92540047055683 zM16.397923168760926,14.587294089806651 L16.397923168760926,17.30359952971564 L20.019724109602123,17.30359952971564 L20.019724109602123,14.587294089806651 L16.397923168760926,14.587294089806651 zM23.641525050443313,14.587294089806651 L23.641525050443313,17.30359952971564 L27.2632354598407,17.30359952971564 L27.2632354598407,14.587294089806651 L23.641525050443313,14.587294089806651 zM30.88503640068189,14.587294089806651 L30.88503640068189,17.30359952971564 L34.50674681007928,17.30359952971564 L34.50674681007928,14.587294089806651 L30.88503640068189,14.587294089806651 zM30.88503640068189,27.263416319863218 L30.88503640068189,29.97972175977221 L34.50674681007928,29.97972175977221 L34.50674681007928,27.263416319863218 L30.88503640068189,27.263416319863218 zM23.641525050443313,27.263416319863218 L23.641525050443313,29.97972175977221 L27.2632354598407,29.97972175977221 L27.2632354598407,27.263416319863218 L23.641525050443313,27.263416319863218 zM16.39801370020473,27.263416319863218 L16.39801370020473,29.97972175977221 L20.019724109602123,29.97972175977221 L20.019724109602123,27.263416319863218 L16.39801370020473,27.263416319863218 zM9.154411818522345,27.263416319863218 L9.154411818522345,29.97972175977221 L12.77621275936354,29.97972175977221 L12.77621275936354,27.263416319863218 L9.154411818522345,27.263416319863218 zM2.8163959692159675,6.438196707192061 L2.8163959692159675,36.31782814052239 L38.12854775092048,36.31782814052239 L38.12854775092048,37.223323641454584 L1.91080993683996,37.223323641454584 L1.91080993683996,6.438196707192061 L2.8163959692159675,6.438196707192061 zM1.0055860302391728,8.24891611472505 L1.0055860302391728,38.12854754805538 L36.31782834338749,38.12854754805538 L36.31773781194369,39.03404304898758 L0.09999999786316852,39.03404304898758 L0.09999999786316852,8.24891611472505 L1.0055860302391728,8.24891611472505 z" id="svg_1" class=""/></g></svg>