<svg xmlns="http://www.w3.org/2000/svg" xmlns:xlink="http://www.w3.org/1999/xlink" version="1.1" baseProfile="full" width="40" height="39" enable-background="new 0 0 76.00 76.00" xml:space="preserve"><rect id="backgroundrect" width="100%" height="100%" x="0" y="0" fill="none" stroke="none" class=""/>
	
<g class="currentLayer"><title>Layer 1</title><path fill="#000000" fill-opacity="1" stroke-width="0.2" stroke-linejoin="round" d="M0.10000038146972655,5 L18.100000381469727,5 L18.100000381469727,20 L0.10000038146972655,20 L0.10000038146972655,5 zM22.100000381469727,5 L40.10000038146973,5 L40.10000038146973,20 L22.100000381469727,20 L22.100000381469727,5 zM25.100000381469727,8 L25.100000381469727,17 L37.10000038146973,17 L37.10000038146973,8 L25.100000381469727,8 zM25.599900381469723,23 L30.100000381469727,27.500100000000003 L30.100000381469727,23 L33.10000038146973,23 L33.10000038146973,34 L30.100000381469727,34 L30.100000381469727,29.5 L25.600000381469727,34 L20.600000381469727,34 L24.599900381469723,30.000100000000003 L8.100000381469727,30 L8.100000381469727,23 L11.100000381469727,23 L11.100000381469727,27 L24.600000381469727,27.000100000000003 L20.600000381469727,23 L25.599900381469723,23 z" id="svg_1" class="" transform="rotate(-180 20.100000381469727,19.5) "/></g></svg>