<svg xmlns="http://www.w3.org/2000/svg" xmlns:xlink="http://www.w3.org/1999/xlink" version="1.1" baseProfile="full" width="40" height="39" enable-background="new 0 0 76.01 76.01" xml:space="preserve"><rect id="backgroundrect" width="100%" height="100%" x="0" y="0" fill="none" stroke="none" class=""/>
	
<g class="currentLayer"><title>Layer 1</title><path fill="#000000" fill-opacity="1" stroke-width="0.2" stroke-linejoin="round" d="M0.09999984741211065,39.105800119018554 L0.09999984741211065,5.100900119018554 L5.100699847412109,5.100900119018554 L5.100699847412109,2.1005001190185553 C5.100799847412109,0.9957001190185544 5.996299847412111,0.10020011901855597 7.100999847412108,0.10020011901855597 L11.10149984741211,0.10020011901855597 C12.206199847412108,0.10020011901855597 13.10169984741211,0.9957001190185544 13.10179984741211,2.1003001190185557 L13.10179984741211,5.100900119018554 L27.103799847412112,5.100900119018554 L27.10369984741211,2.1003001190185557 C27.10369984741211,0.9955001190185548 27.99929984741211,0.10000011901855643 29.103999847412112,0.10000011901855643 L33.10459984741211,0.10000011901855643 C34.20929984741211,0.10000011901855643 35.104899847412106,0.9955001190185548 35.104899847412106,2.1003001190185557 L35.104899847412106,5.100900119018554 L40.10559984741211,5.100900119018554 L40.10559984741211,39.105800119018554 L0.09999984741211065,39.105800119018554 zM3.1003998474121097,36.105400119018555 L37.105099847412106,36.105400119018555 L37.105099847412106,13.102100119018555 L3.1003998474121097,13.102100119018555 L3.1003998474121097,36.105400119018555 zM5.100699847412109,29.104300119018554 L11.10149984741211,29.104300119018554 L11.10149984741211,34.105000119018555 L5.100699847412109,34.105000119018555 L5.100699847412109,29.104300119018554 zM13.10179984741211,29.104300119018554 L19.102599847412108,29.104300119018554 L19.102599847412108,34.105000119018555 L13.10179984741211,34.105000119018555 L13.10179984741211,29.104300119018554 zM21.10289984741211,29.104300119018554 L27.10369984741211,29.104300119018554 L27.10369984741211,34.105000119018555 L21.10289984741211,34.105000119018555 L21.10289984741211,29.104300119018554 zM29.103999847412112,29.104300119018554 L35.104899847412106,29.104300119018554 L35.104899847412106,34.105000119018555 L29.103999847412112,34.105000119018555 L29.103999847412112,29.104300119018554 zM5.100699847412109,22.103300119018556 L11.10149984741211,22.103300119018556 L11.10149984741211,27.104000119018558 L5.100699847412109,27.104000119018558 L5.100699847412109,22.103300119018556 zM13.10179984741211,22.103300119018556 L19.102599847412108,22.103300119018556 L19.102599847412108,27.104000119018558 L13.10179984741211,27.104000119018558 L13.10179984741211,22.103300119018556 zM21.10289984741211,22.103300119018556 L27.10369984741211,22.103300119018556 L27.10369984741211,27.104000119018558 L21.10289984741211,27.104000119018558 L21.10289984741211,22.103300119018556 zM29.103999847412112,22.103300119018556 L35.104899847412106,22.103300119018556 L35.104899847412106,27.104000119018558 L29.103999847412112,27.104000119018558 L29.103999847412112,22.103300119018556 zM13.10179984741211,15.102500119018558 L19.102599847412108,15.102500119018558 L19.102599847412108,20.103200119018553 L13.10179984741211,20.103200119018553 L13.10179984741211,15.102500119018558 zM21.10289984741211,15.102500119018558 L27.10369984741211,15.102500119018558 L27.10369984741211,20.103200119018553 L21.10289984741211,20.103200119018553 L21.10289984741211,15.102500119018558 zM29.103999847412112,15.102500119018558 L35.104899847412106,15.102500119018558 L35.104899847412106,20.103200119018553 L29.103999847412112,20.103200119018553 L29.103999847412112,15.102500119018558 zM30.60419984741211,2.100600119018555 C29.775699847412106,2.100600119018555 29.103999847412112,2.7722001190185566 29.103999847412112,3.6008001190185546 L29.103999847412112,6.601200119018554 C29.103999847412112,7.429700119018555 29.775699847412106,8.101400119018553 30.60419984741211,8.101400119018553 L31.604299847412108,8.101400119018553 C32.43289984741211,8.101400119018553 33.10459984741211,7.429700119018555 33.10459984741211,6.601200119018554 L33.10459984741211,3.6008001190185546 C33.10459984741211,2.7722001190185566 32.43289984741211,2.100600119018555 31.604299847412108,2.100600119018555 L30.60419984741211,2.100600119018555 zM8.601199847412108,2.1005001190185553 C7.77259984741211,2.1005001190185553 7.100999847412108,2.7722001190185566 7.100999847412108,3.600700119018555 L7.100999847412108,6.601200119018554 C7.100999847412108,7.429700119018555 7.77259984741211,8.101400119018553 8.601199847412108,8.101400119018553 L9.601299847412108,8.101400119018553 C10.42989984741211,8.101400119018553 11.10149984741211,7.429700119018555 11.10149984741211,6.601200119018554 L11.10149984741211,3.600700119018555 C11.10149984741211,2.7722001190185566 10.42989984741211,2.1005001190185553 9.601299847412108,2.1005001190185553 L8.601199847412108,2.1005001190185553 zM14.10199984741211,23.103400119018552 L14.10199984741211,26.10380011901856 L18.102499847412112,26.10380011901856 L18.102499847412112,23.103400119018552 L14.10199984741211,23.103400119018552 z" id="svg_1" class=""/></g></svg>