<svg xmlns="http://www.w3.org/2000/svg" xmlns:xlink="http://www.w3.org/1999/xlink" version="1.1" baseProfile="full" width="40" height="39" enable-background="new 0 0 76.01 76.01" xml:space="preserve"><rect id="backgroundrect" width="100%" height="100%" x="0" y="0" fill="none" stroke="none" class=""/>
	
<g class="currentLayer"><title>Layer 1</title><path fill="#000000" fill-opacity="1" stroke-width="0.2" stroke-linejoin="round" d="M0.09999984741211065,39.105800119018554 L0.09999984741211065,5.100900119018554 L5.100699847412109,5.100900119018554 L5.100699847412109,2.1005001190185553 C5.100799847412109,0.9957001190185544 5.996299847412111,0.10020011901855597 7.100999847412108,0.10020011901855597 L11.10149984741211,0.10020011901855597 C12.206199847412108,0.10020011901855597 13.10169984741211,0.9957001190185544 13.10179984741211,2.1003001190185557 L13.10179984741211,5.100900119018554 L27.103799847412112,5.100900119018554 L27.10369984741211,2.1003001190185557 C27.10369984741211,0.9955001190185548 27.99929984741211,0.10000011901855643 29.103999847412112,0.10000011901855643 L33.10459984741211,0.10000011901855643 C34.20929984741211,0.10000011901855643 35.104899847412106,0.9955001190185548 35.104899847412106,2.1003001190185557 L35.104899847412106,5.100900119018554 L40.10559984741211,5.100900119018554 L40.10559984741211,39.105800119018554 L0.09999984741211065,39.105800119018554 zM3.1003998474121097,36.105400119018555 L37.105099847412106,36.105400119018555 L37.105099847412106,13.102100119018555 L3.1003998474121097,13.102100119018555 L3.1003998474121097,36.105400119018555 zM5.100699847412109,29.104300119018554 L11.10149984741211,29.104300119018554 L11.10149984741211,34.105000119018555 L5.100699847412109,34.105000119018555 L5.100699847412109,29.104300119018554 zM13.10179984741211,29.104300119018554 L19.102599847412108,29.104300119018554 L19.102599847412108,34.105000119018555 L13.10179984741211,34.105000119018555 L13.10179984741211,29.104300119018554 zM21.10289984741211,29.104300119018554 L27.10369984741211,29.104300119018554 L27.10369984741211,34.105000119018555 L21.10289984741211,34.105000119018555 L21.10289984741211,29.104300119018554 zM29.103999847412112,29.104300119018554 L35.10479984741211,29.104300119018554 L35.10479984741211,34.105000119018555 L29.103999847412112,34.105000119018555 L29.103999847412112,29.104300119018554 zM5.100699847412109,22.103300119018556 L11.10149984741211,22.103300119018556 L11.10149984741211,27.104000119018558 L5.100699847412109,27.104000119018558 L5.100699847412109,22.103300119018556 zM13.10179984741211,22.103300119018556 L19.102599847412108,22.103300119018556 L19.102599847412108,27.104000119018558 L13.10179984741211,27.104000119018558 L13.10179984741211,22.103300119018556 zM21.10289984741211,22.103300119018556 L27.10369984741211,22.103300119018556 L27.10369984741211,27.104000119018558 L21.10289984741211,27.104000119018558 L21.10289984741211,22.103300119018556 zM29.103999847412112,22.103300119018556 L35.10479984741211,22.103300119018556 L35.10479984741211,27.104000119018558 L29.103999847412112,27.104000119018558 L29.103999847412112,22.103300119018556 zM13.10179984741211,15.102500119018558 L19.102599847412108,15.102500119018558 L19.102599847412108,20.103200119018553 L13.10179984741211,20.103200119018553 L13.10179984741211,15.102500119018558 zM21.10289984741211,15.102500119018558 L27.10369984741211,15.102500119018558 L27.10369984741211,20.103200119018553 L21.10289984741211,20.103200119018553 L21.10289984741211,15.102500119018558 zM29.103999847412112,15.102500119018558 L35.10479984741211,15.102500119018558 L35.10479984741211,20.103200119018553 L29.103999847412112,20.103200119018553 L29.103999847412112,15.102500119018558 zM30.604099847412108,2.100600119018555 C29.77559984741211,2.100600119018555 29.10389984741211,2.7723001190185563 29.10389984741211,3.6008001190185546 L29.10389984741211,6.601300119018553 C29.10389984741211,7.429800119018555 29.77559984741211,8.101500119018553 30.604099847412108,8.101500119018553 L31.604299847412108,8.101500119018553 C32.432799847412106,8.101500119018553 33.10449984741211,7.429800119018555 33.10449984741211,6.601300119018553 L33.10449984741211,3.6008001190185546 C33.10449984741211,2.7723001190185563 32.432799847412106,2.100600119018555 31.604299847412108,2.100600119018555 L30.604099847412108,2.100600119018555 zM8.601199847412108,2.100600119018555 C7.77259984741211,2.100600119018555 7.100899847412109,2.7723001190185563 7.100899847412109,3.6008001190185546 L7.100899847412109,6.601200119018554 C7.100899847412109,7.429800119018555 7.77259984741211,8.101400119018553 8.601199847412108,8.101400119018553 L9.601299847412108,8.101400119018553 C10.42979984741211,8.101400119018553 11.10149984741211,7.429800119018555 11.10149984741211,6.601200119018554 L11.10149984741211,3.6008001190185546 C11.10149984741211,2.7723001190185563 10.42979984741211,2.100600119018555 9.601299847412108,2.100600119018555 L8.601199847412108,2.100600119018555 zM14.101899847412106,23.103500119018555 L14.101899847412106,26.103900119018554 L18.102499847412112,26.103900119018554 L18.102499847412112,23.103500119018555 L14.101899847412106,23.103500119018555 zM6.100799847412109,23.103500119018555 L6.100799847412109,26.103900119018554 L10.101399847412111,26.103900119018554 L10.101399847412111,23.103500119018555 L6.100799847412109,23.103500119018555 zM22.10309984741211,23.103500119018555 L22.10309984741211,26.103900119018554 L26.103599847412113,26.103900119018554 L26.103599847412113,23.103500119018555 L22.10309984741211,23.103500119018555 zM30.10419984741211,23.103400119018552 L30.10419984741211,26.103900119018554 L34.10469984741211,26.103900119018554 L34.10469984741211,23.103400119018552 L30.10419984741211,23.103400119018552 zM14.101899847412106,16.102500119018558 L14.101899847412106,19.102900119018557 L18.102499847412112,19.102900119018557 L18.102499847412112,16.102500119018558 L14.101899847412106,16.102500119018558 zM22.10309984741211,16.102500119018558 L22.10309984741211,19.102900119018557 L26.103599847412113,19.102900119018557 L26.103599847412113,16.102500119018558 L22.10309984741211,16.102500119018558 zM30.10419984741211,16.102500119018558 L30.10419984741211,19.102900119018557 L34.10469984741211,19.102900119018557 L34.10469984741211,16.102500119018558 L30.10419984741211,16.102500119018558 zM30.10419984741211,30.104400119018557 L30.10419984741211,33.104800119018556 L34.10469984741211,33.104800119018556 L34.10469984741211,30.104400119018557 L30.10419984741211,30.104400119018557 zM22.10309984741211,30.104400119018557 L22.10309984741211,33.104800119018556 L26.103599847412113,33.104800119018556 L26.103599847412113,30.104400119018557 L22.10309984741211,30.104400119018557 zM14.10199984741211,30.104400119018557 L14.10199984741211,33.104800119018556 L18.102499847412112,33.104800119018556 L18.102499847412112,30.104400119018557 L14.10199984741211,30.104400119018557 zM6.100799847412109,30.104400119018557 L6.100799847412109,33.104800119018556 L10.101399847412111,33.104800119018556 L10.101399847412111,30.104400119018557 L6.100799847412109,30.104400119018557 z" id="svg_1" class=""/></g></svg>